<mxfile host="app.diagrams.net" modified="2021-01-26T10:22:13.282Z" agent="5.0 (Windows)" etag="f6dCNhUg8fiLRjR94cQo" version="14.2.7" type="github">
  <diagram name="Page-1" id="c7488fd3-1785-93aa-aadb-54a6760d102a">
    <mxGraphModel dx="868" dy="451" grid="1" gridSize="10" guides="1" tooltips="1" connect="1" arrows="1" fold="1" page="1" pageScale="1" pageWidth="1100" pageHeight="850" background="#ffffff" math="0" shadow="0">
      <root>
        <mxCell id="0" />
        <mxCell id="1" parent="0" />
        <mxCell id="hyZklEf4NcYgQn7pLbVo-3" value="" style="edgeStyle=orthogonalEdgeStyle;rounded=0;orthogonalLoop=1;jettySize=auto;html=1;" edge="1" parent="1" source="hyZklEf4NcYgQn7pLbVo-1" target="hyZklEf4NcYgQn7pLbVo-2">
          <mxGeometry relative="1" as="geometry" />
        </mxCell>
        <mxCell id="hyZklEf4NcYgQn7pLbVo-1" value="" style="ellipse;whiteSpace=wrap;html=1;aspect=fixed;" vertex="1" parent="1">
          <mxGeometry x="40" y="80" width="80" height="80" as="geometry" />
        </mxCell>
        <mxCell id="hyZklEf4NcYgQn7pLbVo-5" value="" style="edgeStyle=orthogonalEdgeStyle;rounded=0;orthogonalLoop=1;jettySize=auto;html=1;" edge="1" parent="1" source="hyZklEf4NcYgQn7pLbVo-2" target="hyZklEf4NcYgQn7pLbVo-4">
          <mxGeometry relative="1" as="geometry" />
        </mxCell>
        <mxCell id="hyZklEf4NcYgQn7pLbVo-2" value="" style="whiteSpace=wrap;html=1;" vertex="1" parent="1">
          <mxGeometry x="180" y="90" width="120" height="60" as="geometry" />
        </mxCell>
        <mxCell id="hyZklEf4NcYgQn7pLbVo-7" value="" style="edgeStyle=orthogonalEdgeStyle;rounded=0;orthogonalLoop=1;jettySize=auto;html=1;" edge="1" parent="1" source="hyZklEf4NcYgQn7pLbVo-4" target="hyZklEf4NcYgQn7pLbVo-6">
          <mxGeometry relative="1" as="geometry" />
        </mxCell>
        <mxCell id="hyZklEf4NcYgQn7pLbVo-9" value="" style="edgeStyle=orthogonalEdgeStyle;rounded=0;orthogonalLoop=1;jettySize=auto;html=1;" edge="1" parent="1" source="hyZklEf4NcYgQn7pLbVo-4" target="hyZklEf4NcYgQn7pLbVo-8">
          <mxGeometry relative="1" as="geometry" />
        </mxCell>
        <mxCell id="hyZklEf4NcYgQn7pLbVo-4" value="" style="rhombus;whiteSpace=wrap;html=1;" vertex="1" parent="1">
          <mxGeometry x="400" y="80" width="80" height="80" as="geometry" />
        </mxCell>
        <mxCell id="hyZklEf4NcYgQn7pLbVo-6" value="" style="whiteSpace=wrap;html=1;" vertex="1" parent="1">
          <mxGeometry x="380" y="250" width="120" height="60" as="geometry" />
        </mxCell>
        <mxCell id="hyZklEf4NcYgQn7pLbVo-8" value="" style="whiteSpace=wrap;html=1;" vertex="1" parent="1">
          <mxGeometry x="540" y="250" width="120" height="60" as="geometry" />
        </mxCell>
      </root>
    </mxGraphModel>
  </diagram>
</mxfile>
